<?xml version="1.0" encoding="utf-8"?>
<svg version="1.1" xmlns:xlink="http://www.w3.org/1999/xlink" width="16px" height="16px" viewBox="40 1242  16 16" xmlns="http://www.w3.org/2000/svg">
  <path d="M 48 1242  C 52.48 1242  56 1245.52  56 1250  C 56 1254.48  52.48 1258  48 1258  C 43.52 1258  40 1254.48  40 1250  C 40 1245.52  43.52 1242  48 1242  Z " fill-rule="nonzero" fill="#f0f0f0" stroke="none" />
  <path d="M 48 1242.5  C 52.2 1242.5  55.5 1245.8  55.5 1250  C 55.5 1254.2  52.2 1257.5  48 1257.5  C 43.8 1257.5  40.5 1254.2  40.5 1250  C 40.5 1245.8  43.8 1242.5  48 1242.5  Z " stroke-width="1" stroke="#8c8c8c" fill="none" />
  <path d="M 48 1254  C 45.76 1254  44 1252.24  44 1250  C 44 1247.76  45.76 1246  48 1246  C 50.24 1246  52 1247.76  52 1250  C 52 1252.24  50.24 1254  48 1254  " fill-rule="nonzero" fill="#8c8c8c" stroke="none" />
</svg>