<?xml version="1.0" encoding="utf-8"?>
<svg version="1.1" xmlns:xlink="http://www.w3.org/1999/xlink" width="16px" height="16px" viewBox="149 1242  16 16" xmlns="http://www.w3.org/2000/svg">
  <path d="M 157 1242  C 161.48 1242  165 1245.52  165 1250  C 165 1254.48  161.48 1258  157 1258  C 152.52 1258  149 1254.48  149 1250  C 149 1245.52  152.52 1242  157 1242  Z " fill-rule="nonzero" fill="#f0f0f0" stroke="none" />
  <path d="M 157 1242.5  C 161.2 1242.5  164.5 1245.8  164.5 1250  C 164.5 1254.2  161.2 1257.5  157 1257.5  C 152.8 1257.5  149.5 1254.2  149.5 1250  C 149.5 1245.8  152.8 1242.5  157 1242.5  Z " stroke-width="1" stroke="#8c8c8c" fill="none" />
  <path d="M 157 1254  C 154.76 1254  153 1252.24  153 1250  C 153 1247.76  154.76 1246  157 1246  C 159.24 1246  161 1247.76  161 1250  C 161 1252.24  159.24 1254  157 1254  " fill-rule="nonzero" fill="#8c8c8c" stroke="none" />
</svg>