<?xml version="1.0" encoding="utf-8"?>
<svg version="1.1" xmlns:xlink="http://www.w3.org/1999/xlink" width="108px" height="38px" xmlns="http://www.w3.org/2000/svg">
  <defs>
    <mask fill="white" id="clip234">
      <path d="M 0 28  L 0 10  C 0 4.40000000000001  4.40000000000001 0  10 0  L 98 0  C 103.6 0  108 4.40000000000001  108 10  L 108 28  C 108 33.6  103.6 38  98 38  L 10 38  C 4.40000000000001 38  0 33.6  0 28  Z " fill-rule="evenodd" />
    </mask>
  </defs>
  <g transform="matrix(1 0 0 1 -88 -192 )">
    <path d="M 0 28  L 0 10  C 0 4.40000000000001  4.40000000000001 0  10 0  L 98 0  C 103.6 0  108 4.40000000000001  108 10  L 108 28  C 108 33.6  103.6 38  98 38  L 10 38  C 4.40000000000001 38  0 33.6  0 28  Z " fill-rule="nonzero" fill="#ec808d" stroke="none" transform="matrix(1 0 0 1 88 192 )" />
    <path d="M 0 28  L 0 10  C 0 4.40000000000001  4.40000000000001 0  10 0  L 98 0  C 103.6 0  108 4.40000000000001  108 10  L 108 28  C 108 33.6  103.6 38  98 38  L 10 38  C 4.40000000000001 38  0 33.6  0 28  Z " stroke-width="2" stroke="#000000" fill="none" transform="matrix(1 0 0 1 88 192 )" mask="url(#clip234)" />
  </g>
</svg>