<?xml version="1.0" encoding="utf-8"?>
<svg version="1.1" xmlns:xlink="http://www.w3.org/1999/xlink" width="41px" height="42px" xmlns="http://www.w3.org/2000/svg">
  <g transform="matrix(1 0 0 1 -240 -746 )">
    <path d="M 31.951171875 23.98046875  C 32.2892795138889 23.6341145833333  32.4583333333333 23.2239583333333  32.4583333333333 22.75  L 32.4583333333333 19.25  C 32.4583333333333 18.7760416666667  32.2892795138889 18.3658854166667  31.951171875 18.01953125  C 31.6130642361111 17.6731770833333  31.2126736111111 17.5  30.75 17.5  L 23.9166666666667 17.5  L 23.9166666666667 10.5  C 23.9166666666667 10.0260416666667  23.7476128472222 9.61588541666666  23.4095052083333 9.26953125  C 23.0713975694444 8.92317708333333  22.6710069444444 8.75  22.2083333333333 8.75  L 18.7916666666667 8.75  C 18.3289930555556 8.75  17.9286024305556 8.92317708333333  17.5904947916667 9.26953125  C 17.2523871527778 9.61588541666666  17.0833333333333 10.0260416666667  17.0833333333333 10.5  L 17.0833333333333 17.5  L 10.25 17.5  C 9.78732638888889 17.5  9.38693576388889 17.6731770833333  9.048828125 18.01953125  C 8.71072048611111 18.3658854166667  8.54166666666667 18.7760416666667  8.54166666666667 19.25  L 8.54166666666667 22.75  C 8.54166666666667 23.2239583333333  8.71072048611111 23.6341145833333  9.048828125 23.98046875  C 9.38693576388889 24.3268229166667  9.78732638888889 24.5  10.25 24.5  L 17.0833333333333 24.5  L 17.0833333333333 31.5  C 17.0833333333333 31.9739583333333  17.2523871527778 32.3841145833333  17.5904947916667 32.73046875  C 17.9286024305556 33.0768229166667  18.3289930555556 33.25  18.7916666666667 33.25  L 22.2083333333333 33.25  C 22.6710069444444 33.25  23.0713975694444 33.0768229166667  23.4095052083333 32.73046875  C 23.7476128472222 32.3841145833333  23.9166666666667 31.9739583333333  23.9166666666667 31.5  L 23.9166666666667 24.5  L 30.75 24.5  C 31.2126736111111 24.5  31.6130642361111 24.3268229166667  31.951171875 23.98046875  Z M 38.2506510416667 10.458984375  C 40.0835503472222 13.6764322916667  41 17.1901041666667  41 21  C 41 24.8098958333333  40.0835503472222 28.3235677083333  38.2506510416667 31.541015625  C 36.4177517361111 34.7584635416667  33.9308810763889 37.3059895833333  30.7900390625 39.18359375  C 27.6491970486111 41.0611979166667  24.2191840277778 42  20.5 42  C 16.7808159722222 42  13.3508029513889 41.0611979166667  10.2099609375 39.18359375  C 7.06911892361111 37.3059895833333  4.58224826388889 34.7584635416667  2.74934895833333 31.541015625  C 0.916449652777778 28.3235677083333  0 24.8098958333333  0 21  C 0 17.1901041666667  0.916449652777778 13.6764322916667  2.74934895833333 10.458984375  C 4.58224826388889 7.24153645833333  7.06911892361111 4.69401041666666  10.2099609375 2.81640625  C 13.3508029513889 0.93880208333333  16.7808159722222 0  20.5 0  C 24.2191840277778 0  27.6491970486111 0.93880208333333  30.7900390625 2.81640625  C 33.9308810763889 4.69401041666666  36.4177517361111 7.24153645833333  38.2506510416667 10.458984375  Z " fill-rule="nonzero" fill="#000000" stroke="none" transform="matrix(1 0 0 1 240 746 )" />
  </g>
</svg>